<svg width="1440" height="250" viewBox="0 0 1440 250" fill="none" xmlns="http://www.w3.org/2000/svg">
<g clip-path="url(#clip0_210_4245)">
<path d="M0 9.625L114.12 66.6461L251.097 -1.79545L182.641 -36H91.3125L159.785 -1.77923L114.145 21.013L0 -36V9.625ZM273.938 -36L296.745 -24.5958L319.586 -36H273.938ZM410.874 -36H410.89L159.785 89.4708L296.77 157.929L547.891 32.4497L593.547 55.25L342.418 180.729L479.387 249.17L593.531 192.141L639.171 214.95L410.874 329H502.186L730.516 214.933L593.539 146.5L479.378 203.545L433.738 180.737L684.836 55.25L547.859 -13.2078L296.753 112.287L251.097 89.4627L502.178 -36H410.866H410.874ZM593.539 -36L730.5 32.4334L844.62 -24.5877L890.285 -1.77923L639.171 123.692L776.132 192.133L1027.25 66.638L1072.91 89.4708L593.539 329H684.852L1164.23 89.4627L1027.25 21.0211L776.132 146.492L730.508 123.667L981.589 -1.78734L913.109 -36H776.124L730.484 -13.1834L684.852 -36H593.539ZM1004.44 -36H1004.42L1369.66 146.5L1324.02 169.317L1209.87 112.279L1072.89 180.737L1324.03 306.2L1301.2 317.612L1278.37 329H1369.67L1415.35 306.183L1164.24 180.721L1209.89 157.904L1324.04 214.95L1461 146.508L1095.73 -36H1004.44ZM1278.37 329L1027.25 203.537L890.26 271.987L1004.43 329H1095.73L981.597 271.979L1027.25 249.17L1187.05 329H1278.37ZM1187.05 -36L1278.36 9.625L1369.67 -36H1187.05ZM1324.02 32.4578L1461 100.891V55.25L1415.34 32.4172L1461 9.625V-36L1324.02 32.4578ZM0 55.25V100.891L342.41 271.971L296.753 294.795L45.64 169.317L0 192.101V237.758L45.64 214.942L273.938 329H319.586L433.722 271.971L0 55.25ZM0 237.766V283.391L91.3206 329H182.641L0 237.766ZM1461 192.093V192.109L1369.67 237.75L1461 283.391V192.093ZM844.628 294.795L776.124 329H913.109L844.628 294.795Z" fill="url(#paint0_linear_210_4245)"/>
</g>
<defs>
<linearGradient id="paint0_linear_210_4245" x1="-18.5" y1="1.99999" x2="1433" y2="244" gradientUnits="userSpaceOnUse">
<stop stop-color="#E4E6FD"/>
<stop offset="0.286458" stop-color="#ECF9FD"/>
<stop offset="0.708333" stop-color="#FCF6E2"/>
<stop offset="1" stop-color="#F4FAF5"/>
</linearGradient>
<clipPath id="clip0_210_4245">
<rect width="1440" height="250" fill="white"/>
</clipPath>
</defs>
</svg>
